<?xml version="1.0" encoding="UTF-8"?>
<svg id="Layer_1" data-name="Layer 1" xmlns="http://www.w3.org/2000/svg" viewBox="0 0 86 32.92">
  <defs>
    <style>
      .cls-1 {
        fill: #6b737e;
      }

      .cls-1, .cls-2, .cls-3, .cls-4 {
        stroke-width: 0px;
      }

      .cls-2 {
        fill: #6c747d;
      }

      .cls-3 {
        fill: #1e8ffe;
      }

      .cls-4 {
        fill: #6b747d;
      }
    </style>
  </defs>
  <path class="cls-3" d="m58.5,24.4c-1.81,2.56-3.64,5.1-5.42,7.68-.4.57-.81.82-1.51.81-3.27-.03-6.55-.03-9.82,0-.67,0-1.06-.24-1.43-.77-4.55-6.49-9.12-12.96-13.69-19.44q-.6-.85-1.19,0c-4.58,6.5-9.16,12.99-13.73,19.5-.35.51-.73.73-1.36.72-3.15-.03-6.3-.01-9.45-.02-.29,0-.7.16-.86-.13-.17-.3.21-.54.38-.77C6.56,23.23,12.71,14.5,18.86,5.77c.71-1.01,1.4-2.03,2.1-3.05,2.46-3.58,7.56-3.63,10.06-.09,4.46,6.33,8.91,12.68,13.36,19.01.6.85,1.24,1.67,1.77,2.55.44.72.68.54,1.07-.03.93-1.38,1.91-2.73,2.87-4.09.47-1.83,1.52-3.26,3.03-4.37.49-.67.96-1.35,1.47-2.01.34-.44.21-.68-.22-.94-.58-.34-1.13-.73-1.9-1.24,1.34-.3,2.46-.55,3.58-.8,2.19-.48,4.39-.93,6.58-1.44.57-.13.81-.09.94.55.37,1.93.81,3.85,1.23,5.77.83.91,1.07,2.05,1.13,3.21.05,1.06-.53,1.38-1.48.92-1.66-.8-1.68-.81-2.71.75-.61.92-1.32,1.77-1.87,2.74-.31.55-.87.84-1.37,1.18Z"/>
  <path class="cls-4" d="m58.5,24.4c1.31-1.86,2.63-3.71,3.93-5.58.3-.44.65-.41,1.03-.19.45.26.9.53,1.34.82.57.38.83.2.73-.43-.14-.87-.36-1.74-.54-2.6-.06-.27-.12-.54-.18-.81,1.78.24,3.58.32,5.33-.05,1.74-.37,2.73-2.16,2.47-4.03-.23-1.65-1.73-2.93-3.53-2.94-8.12-.01-16.25-.07-24.37.04-1.8.02-2.95-.4-3.88-1.99-1.19-2.02-2.65-3.87-3.98-5.8-.15-.22-.4-.4-.37-.72.35-.2.73-.11,1.08-.11,10.44,0,20.88,0,31.32,0,5.39,0,9.99,3.25,11.66,8.22,1.69,5.03.05,10.38-4.22,13.64-.51.39-.52.57-.08,1.01,3.06,3.01,6.09,6.05,9.12,9.09.23.23.53.42.64.78-.26.25-.59.14-.87.14-3.4,0-6.8,0-10.19.02-.61,0-1.03-.2-1.45-.63-2.41-2.44-4.86-4.84-7.26-7.28-.5-.51-1-.71-1.7-.69-2,.06-4.01.06-6.02.08Z"/>
  <path class="cls-2" d="m29.54,26.75c0,1.79-.02,3.58.01,5.37.01.61-.19.8-.8.79-1.7-.03-3.4-.03-5.09,0-.61.01-.79-.2-.79-.8.02-3.74,0-7.47,0-11.21,0-.28.03-.54.2-.79.84-1.18,1.69-2.36,2.51-3.55.36-.53.62-.47.96.02.9,1.29,1.83,2.56,2.76,3.83.24.33.24.68.24,1.06,0,1.76,0,3.52,0,5.28h0Z"/>
  <path class="cls-4" d="m21.96,22.11c0,1.59,0,3.18,0,4.77,0,1.76,0,3.51,0,5.27,0,.33.07.73-.45.73-2.4,0-4.79,0-7.42,0,2.63-3.73,5.13-7.29,7.64-10.84l.24.07Z"/>
  <path class="cls-4" d="m30.64,22.29c2.48,3.45,4.96,6.92,7.45,10.39-.33.34-.69.21-1,.21-1.97.01-3.94,0-5.92.02-.52,0-.79-.11-.78-.71.02-3.14,0-6.28,0-9.43,0-.15,0-.31.26-.47Z"/>
  <path class="cls-1" d="m53.13,15.72c-1.01,1.46-2.02,2.91-3.03,4.37.13-.39-.15-.63-.34-.9-.65-.94-1.3-1.87-1.96-2.8-.33-.47-.21-.64.34-.64,1.66,0,3.33-.02,4.99-.03Z"/>
</svg>