<svg xmlns="http://www.w3.org/2000/svg" width="53" height="53" viewBox="0 0 53 53" fill="none"><path d="M26.2898 24.3682L15.6585 28.067C15.3882 28.1583 15.2075 28.4109 15.2045 28.6954V32.7104C15.1951 33.615 16.5572 33.615 16.5454 32.7104V29.1706L26.5071 25.705L36.4758 29.1706V32.7104C36.4357 33.6397 37.8526 33.6397 37.8102 32.7104V28.6954C37.8102 28.4133 37.6318 28.1583 37.3615 28.067L26.7314 24.3682C26.5471 24.304 26.47 24.3064 26.2898 24.3682Z" fill="#1E8FFE"></path><path fill-rule="evenodd" clip-rule="evenodd" d="M24.9665 4.66753C28.5399 3.8213 32.1104 5.99901 32.966 9.53234C33.8181 13.0657 31.6263 16.602 28.0523 17.4452C24.4766 18.2885 20.9062 16.1138 20.0529 12.5804C19.1978 9.0471 21.3908 5.512 24.9665 4.66753ZM24.6538 3.3708C20.382 4.37957 17.7285 8.64607 18.7532 12.8878C19.7767 17.1296 24.092 19.7519 28.365 18.7432C32.638 17.7344 35.288 13.4673 34.2633 9.22553C33.2387 4.98435 28.9233 2.36144 24.6538 3.3708Z" fill="#1E8FFE"></path><path d="M19.7749 22.0091H33.2422C35.033 22.0091 36.1902 22.3224 37.14 23.015C38.0911 23.7081 38.8861 24.8523 39.7565 26.6496L43.8174 35.0354C44.381 36.1984 44.51 37.0841 44.3257 37.7066C44.1413 38.3325 43.6484 38.8455 42.5531 39.2677L38.266 40.9337C37.5611 41.2093 37.0329 41.1368 36.5912 40.9001C36.1531 40.664 35.8033 40.2252 35.6195 39.7005C35.2515 38.6494 35.4817 37.3944 36.9192 36.7779C38.1959 36.229 40.419 35.3274 40.419 35.3274C41.3335 35.0359 40.7776 33.665 39.9184 34.0914C39.9184 34.0914 37.6983 34.993 36.3922 35.5542C34.3552 36.4287 33.794 38.5357 34.3587 40.1428C34.4323 40.3571 34.5301 40.5633 34.6408 40.7594C32.9354 44.0194 30.0828 46.4421 26.5065 48.3931C22.9307 46.4421 20.0805 44.0194 18.3722 40.7594C18.4858 40.5633 18.5806 40.3571 18.6572 40.1428C19.2219 38.5357 18.6607 36.4287 16.6202 35.5542C15.317 34.993 13.0963 34.0914 13.0963 34.0914C12.2348 33.665 11.6794 35.0359 12.5969 35.3274C12.5969 35.3274 14.817 36.2296 16.0955 36.7779C17.5312 37.3944 17.7644 38.6494 17.3964 39.7005C17.212 40.2252 16.8593 40.664 16.4212 40.9001C15.983 41.1368 15.4519 41.2093 14.7464 40.9337L10.4622 39.2683C9.36745 38.8455 8.87279 38.3325 8.68847 37.7071C8.50238 37.0841 8.63311 36.1984 9.19432 35.0359L13.2612 26.6502C14.1298 24.8529 14.9242 23.7087 15.8747 23.0155C16.8269 22.3224 17.9829 22.0091 19.7749 22.0091ZM19.7749 20.6782C17.8239 20.6782 16.3152 21.0369 15.0879 21.9332C13.8607 22.8283 12.9679 24.1868 12.0575 26.0672L7.99711 34.4529C7.35522 35.7774 7.08257 36.9952 7.40469 38.0876C7.73034 39.1794 8.65254 40.0009 9.98108 40.5167L14.2652 42.1821C15.284 42.5778 16.2781 42.4948 17.053 42.0773C17.1855 42.0066 17.311 41.9212 17.4305 41.8317C19.3721 45.2667 22.4543 47.8101 26.1938 49.7882C26.3905 49.8924 26.626 49.8924 26.8198 49.7882C30.5592 47.8101 33.6438 45.2667 35.583 41.8317C35.7049 41.9212 35.828 42.0072 35.9629 42.0773C36.7361 42.4942 37.7331 42.5778 38.7507 42.1821L43.0384 40.5167C44.3669 40.0009 45.2867 39.1788 45.6088 38.0876C45.931 36.9958 45.6642 35.7774 45.02 34.4529L40.959 26.0672C40.048 24.1874 39.1535 22.8283 37.9262 21.9332C36.7025 21.0375 35.1932 20.6782 33.2428 20.6782H19.7749Z" fill="#1E8FFE"></path><path fill-rule="evenodd" clip-rule="evenodd" d="M32.1233 34.2227L25.2127 41.1945C25.1667 41.2405 25.1114 41.2405 25.0655 41.1945L20.8973 37.0258L22.1911 35.7008L24.6721 38.1883C24.933 38.4462 25.3564 38.4462 25.6172 38.1883L30.7447 33.0573L32.1233 34.2227ZM30.7983 31.6498C30.3749 31.6952 30.0345 31.8824 29.8066 32.1098L25.1485 36.7685L23.1392 34.7621C22.5904 34.2068 21.6611 34.2068 21.1117 34.7621L19.9498 35.9428C19.3974 36.4982 19.3974 37.4098 19.9498 37.9651L24.1274 42.1421C24.7645 42.7798 25.5165 42.7863 26.152 42.148L33.0714 35.1643C33.642 34.5878 33.5248 33.6367 33.0643 33.1491L31.9213 32.0173C31.5951 31.6987 31.1663 31.6098 30.7983 31.6498Z" fill="#1E8FFE"></path></svg>