<svg xmlns="http://www.w3.org/2000/svg" width="53" height="53" viewBox="0 0 53 53" fill="none"><path d="M26.5078 3.31228C21.4109 3.31736 16.4819 5.13544 12.6025 8.44138C8.72305 11.7473 6.14617 16.3255 5.33268 21.3571C3.14146 33.9165 13.0298 45.8759 25.6798 46.2338L25.6797 48.8592C25.6814 49.0079 25.723 49.1535 25.8001 49.2807C25.8773 49.4079 25.9872 49.5121 26.1183 49.5823C26.2495 49.6525 26.3971 49.6862 26.5457 49.6799C26.6944 49.6736 26.8386 49.6275 26.9633 49.5464L37.29 42.6648C37.4026 42.589 37.4947 42.4866 37.5582 42.3667C37.6218 42.2468 37.6548 42.1131 37.6544 41.9774C37.6529 41.8421 37.619 41.7091 37.5557 41.5895C37.4923 41.4699 37.4012 41.3673 37.29 41.2901L26.9633 34.4084C26.8384 34.3284 26.6943 34.2832 26.5461 34.2774C26.3978 34.2717 26.2507 34.3055 26.1199 34.3756C25.9891 34.4456 25.8794 34.5493 25.802 34.6759C25.7246 34.8024 25.6824 34.9474 25.6797 35.0957V37.696C21.1648 37.5203 16.8469 35.8003 13.4479 32.8233C10.0489 29.8464 7.77474 25.7929 7.0055 21.3405C11.7747 -2.20685 45.6091 0.556588 46.3166 24.7775C46.323 27.38 45.8141 29.9581 44.8191 32.3629C43.8242 34.7678 42.363 36.9519 40.5197 38.7892C40.443 38.8658 40.3822 38.9568 40.3407 39.057C40.2992 39.1572 40.2779 39.2646 40.2779 39.373C40.2779 39.4814 40.2992 39.5888 40.3407 39.689C40.3822 39.7891 40.443 39.8801 40.5197 39.9568C40.5964 40.0335 40.6874 40.0943 40.7876 40.1358C40.8877 40.1773 40.9951 40.1986 41.1035 40.1986C41.2119 40.1986 41.3193 40.1773 41.4195 40.1358C41.5197 40.0943 41.6107 40.0335 41.6874 39.9568C44.6888 36.9545 46.7328 33.1296 47.5606 28.9657C48.3885 24.8019 47.9632 20.4861 46.3385 16.5639C44.7138 12.6417 41.9627 9.28935 38.4329 6.93062C34.9031 4.57189 30.7532 3.31271 26.5078 3.31228ZM26.5078 39.3688C26.7273 39.3682 26.9375 39.2807 27.0927 39.1256C27.2478 38.9704 27.3353 38.7602 27.336 38.5407V36.6443L35.3357 41.9774L27.336 47.3106V45.4224C27.3363 45.3136 27.3152 45.2057 27.2737 45.1051C27.2322 45.0044 27.1712 44.913 27.0943 44.836C27.0173 44.759 26.9258 44.6981 26.8252 44.6566C26.7245 44.6151 26.6167 44.5939 26.5078 44.5943C21.5276 44.5873 16.7323 42.707 13.0747 39.327C9.41706 35.9471 7.16477 31.3149 6.76534 26.3507C8.41141 30.2215 11.1623 33.521 14.6738 35.8364C18.1853 38.1519 22.3016 39.3806 26.5078 39.3688Z" fill="#1E8FFE"></path><path d="M25.6797 6.38622V7.58028C25.6797 7.79992 25.7669 8.01055 25.9222 8.16586C26.0775 8.32116 26.2882 8.40841 26.5078 8.40841C26.7274 8.40841 26.9381 8.32116 27.0934 8.16586C27.2487 8.01055 27.3359 7.79992 27.3359 7.58028V6.38622C27.3359 6.16659 27.2487 5.95595 27.0934 5.80065C26.9381 5.64534 26.7274 5.55809 26.5078 5.55809C26.2882 5.55809 26.0775 5.64534 25.9222 5.80065C25.7669 5.95595 25.6797 6.16659 25.6797 6.38622Z" fill="#1E8FFE"></path><path d="M12.9157 11.188C12.8388 11.2648 12.7778 11.3561 12.7362 11.4566C12.6946 11.557 12.6731 11.6647 12.6731 11.7735C12.6731 11.8822 12.6945 11.9899 12.7362 12.0904C12.7778 12.1908 12.8388 12.2821 12.9157 12.359C13.2425 12.6252 13.8554 13.5115 14.3456 13.4459C14.5082 13.4433 14.6665 13.3932 14.801 13.3018C14.9355 13.2104 15.0403 13.0816 15.1025 12.9314C15.1648 12.7811 15.1817 12.6159 15.1512 12.4562C15.1208 12.2964 15.0442 12.1491 14.931 12.0323C14.4049 11.554 13.7037 10.4433 12.9157 11.188Z" fill="#1E8FFE"></path><path d="M40.0999 37.2007C39.5737 36.7224 38.8726 35.6118 38.0846 36.3564C38.0077 36.4333 37.9467 36.5246 37.905 36.625C37.8634 36.7255 37.842 36.8332 37.842 36.9419C37.842 37.0507 37.8634 37.1583 37.905 37.2588C37.9466 37.3593 38.0076 37.4506 38.0845 37.5274C38.4114 37.7936 39.0243 38.68 39.5144 38.6144C39.677 38.6118 39.8353 38.5617 39.9699 38.4703C40.1044 38.3789 40.2092 38.2501 40.2714 38.0998C40.3337 37.9496 40.3506 37.7844 40.3201 37.6246C40.2896 37.4649 40.2131 37.3175 40.0999 37.2007Z" fill="#1E8FFE"></path><path d="M44.9013 25.6078C45.1181 25.6035 45.3246 25.5144 45.4765 25.3596C45.6283 25.2048 45.7134 24.9965 45.7134 24.7796C45.7134 24.5628 45.6283 24.3545 45.4765 24.1997C45.3246 24.0449 45.1181 23.9557 44.9013 23.9515H43.7076C43.4908 23.9557 43.2842 24.0448 43.1324 24.1997C42.9805 24.3545 42.8955 24.5627 42.8954 24.7796C42.8954 24.9965 42.9805 25.2047 43.1323 25.3596C43.2842 25.5144 43.4907 25.6035 43.7076 25.6078H44.9013Z" fill="#1E8FFE"></path><path d="M40.0999 12.359C40.1768 12.2821 40.2378 12.1908 40.2795 12.0904C40.3211 11.9899 40.3425 11.8822 40.3425 11.7735C40.3425 11.6647 40.3211 11.5571 40.2795 11.4566C40.2378 11.3561 40.1768 11.2648 40.0999 11.188C39.3119 10.4432 38.611 11.5539 38.0846 12.0323C37.9714 12.1491 37.8949 12.2964 37.8644 12.4562C37.8339 12.6159 37.8509 12.7811 37.9131 12.9314C37.9753 13.0816 38.0801 13.2104 38.2147 13.3018C38.3492 13.3932 38.5075 13.4433 38.6701 13.4459C39.1634 13.5096 39.7691 12.6265 40.0999 12.359Z" fill="#1E8FFE"></path><path d="M17.6718 21.0794L16.8291 21.8921C16.7508 21.9676 16.6881 22.0578 16.6447 22.1575C16.6013 22.2572 16.5779 22.3645 16.576 22.4733C16.574 22.582 16.5935 22.6901 16.6333 22.7913C16.6732 22.8925 16.7325 22.9848 16.8081 23.0631C17.5774 23.8157 18.2918 22.7403 18.8242 22.269C21.3697 19.9309 25.3355 23.3316 22.7821 26.0024L16.8235 31.7499C16.7073 31.8656 16.6278 32.0129 16.595 32.1734C16.5621 32.334 16.5773 32.5007 16.6386 32.6527C16.7 32.8047 16.8048 32.9352 16.9399 33.0279C17.0751 33.1207 17.2346 33.1715 17.3984 33.1741H24.3688C24.5863 33.1709 24.7938 33.0822 24.9464 32.9273C25.0991 32.7723 25.1847 32.5635 25.1847 32.346C25.1847 32.1285 25.0991 31.9197 24.9464 31.7647C24.7938 31.6098 24.5863 31.5211 24.3688 31.5179H19.4502L23.932 27.1945C28.0084 22.9517 21.8457 17.2156 17.6718 21.0794Z" fill="#1E8FFE"></path><path d="M34.4219 33.1741C34.5307 33.1741 34.6384 33.1527 34.7389 33.1111C34.8394 33.0695 34.9307 33.0085 35.0076 32.9316C35.0845 32.8547 35.1455 32.7634 35.1871 32.6629C35.2287 32.5625 35.2501 32.4548 35.25 32.346V30.8357H35.6172C35.834 30.8315 36.0405 30.7424 36.1924 30.5876C36.3442 30.4327 36.4293 30.2245 36.4293 30.0076C36.4293 29.7907 36.3443 29.5825 36.1924 29.4277C36.0406 29.2728 35.834 29.1837 35.6172 29.1795H35.25V20.6536C35.2466 20.4755 35.1861 20.3031 35.0774 20.1619C34.9688 20.0206 34.8177 19.918 34.6463 19.869C34.475 19.8201 34.2925 19.8273 34.1256 19.8898C33.9587 19.9523 33.8162 20.0666 33.7192 20.2161L27.8989 29.5701C27.8227 29.6958 27.781 29.8394 27.7782 29.9863C27.7754 30.1333 27.8115 30.2784 27.8829 30.4069C27.9542 30.5354 28.0583 30.6427 28.1845 30.718C28.3107 30.7934 28.4546 30.834 28.6016 30.8357H33.5938V32.346C33.5938 32.4548 33.6152 32.5625 33.6568 32.6629C33.6984 32.7634 33.7594 32.8547 33.8363 32.9316C33.9132 33.0085 34.0045 33.0695 34.105 33.1111C34.2055 33.1527 34.3132 33.1741 34.4219 33.1741ZM30.0921 29.1795L33.5938 23.552V29.1795H30.0921Z" fill="#1E8FFE"></path></svg>