<svg xmlns="http://www.w3.org/2000/svg" width="46" height="46" viewBox="0 0 46 46" fill="none"><g clip-path="url(#clip0_2_38)"><path d="M32.3883 25.3906C32.3616 25.2348 32.4132 25.076 32.5265 24.9657L39.0474 18.6092C39.5478 18.1216 39.7244 17.4058 39.5085 16.7413C39.2926 16.0769 38.7289 15.6016 38.0374 15.5012L29.0257 14.1917C28.8693 14.1689 28.7341 14.0707 28.6642 13.929L24.6341 5.76294C24.3248 5.13642 23.6987 4.7472 22.9999 4.7472C22.3012 4.7472 21.6751 5.13642 21.3659 5.76294L19.3359 9.87601C19.1719 10.2083 19.3084 10.6108 19.6407 10.7748C19.973 10.9388 20.3754 10.8024 20.5395 10.4701L22.5695 6.35689C22.6887 6.11539 22.9103 6.08926 22.9999 6.08926C23.0897 6.08926 23.3113 6.11539 23.4305 6.35689L27.4607 14.5231C27.7264 15.0609 28.2392 15.4335 28.8328 15.5198L37.8445 16.8293C38.1111 16.868 38.2043 17.0707 38.232 17.156C38.2599 17.2414 38.3034 17.4602 38.1106 17.6482L31.5896 24.0046C31.1601 24.4234 30.9642 25.0262 31.0657 25.6175L32.605 34.5929C32.6506 34.8584 32.4866 35.0098 32.414 35.0625C32.3413 35.1152 32.1471 35.2246 31.9084 35.099L28.6484 33.3852C28.3204 33.2128 27.9146 33.3388 27.7421 33.6669C27.5696 33.995 27.6958 34.4007 28.0238 34.5732L31.2838 36.287C31.5529 36.4284 31.8439 36.4983 32.1335 36.4983C32.5097 36.4983 32.8835 36.3803 33.2028 36.1483C33.768 35.7376 34.0459 35.0546 33.9278 34.366L32.3883 25.3906Z" fill="#1E8FFE"></path><path d="M26.0965 32.0435L23.8479 30.8615C23.3169 30.5822 22.6829 30.5822 22.152 30.8615L14.0916 35.0991C13.8533 35.2246 13.6586 35.1154 13.586 35.0626C13.5134 35.0098 13.3495 34.8585 13.395 34.5929L14.9344 25.6176C15.0358 25.0263 14.8399 24.4234 14.4103 24.0047L7.88934 17.6482C7.69652 17.4603 7.74019 17.2415 7.76792 17.1561C7.79566 17.0708 7.88899 16.8681 8.15554 16.8294L17.1673 15.5199C17.7609 15.4336 18.2739 15.061 18.5393 14.5231L19.2654 13.0518C19.4295 12.7194 19.293 12.317 18.9607 12.153C18.6282 11.9889 18.2258 12.1255 18.0619 12.4578L17.3358 13.929C17.2658 14.0707 17.1307 14.1689 16.9743 14.1917L7.96245 15.5012C7.27097 15.6016 6.70736 16.0769 6.49145 16.7413C6.27554 17.4058 6.45226 18.1216 6.95252 18.6092L13.4735 24.9657C13.5867 25.076 13.6383 25.2348 13.6116 25.3907L12.0722 34.3659C11.9541 35.0546 12.2318 35.7375 12.7972 36.1482C13.1166 36.3803 13.4902 36.4983 13.8666 36.4982C14.1561 36.4982 14.4473 36.4283 14.7163 36.2869L22.7766 32.0493C22.9165 31.9757 23.0835 31.9757 23.2234 32.0493L25.4719 33.2314C25.8002 33.4039 26.2058 33.2775 26.3782 32.9496C26.5507 32.6217 26.4245 32.2159 26.0965 32.0435Z" fill="#1E8FFE"></path><path d="M3.5022 5.80455L8.95528 8.53171C9.16555 8.63685 9.39041 8.6883 9.61329 8.6883C9.96834 8.6883 10.3182 8.55784 10.5955 8.30614C11.0467 7.89652 11.197 7.26427 10.9784 6.69547L8.79109 1.00438C8.51156 0.277198 7.68426 -0.109074 6.94679 0.143519C5.04344 0.79518 3.65619 2.05421 2.8236 3.88571C2.50104 4.59535 2.80544 5.45612 3.5022 5.80455ZM4.0455 4.44119C4.72857 2.93842 5.81983 1.948 7.38165 1.41338C7.39247 1.40962 7.40393 1.40792 7.41565 1.40792C7.4662 1.40792 7.5207 1.44022 7.53832 1.48594L9.72567 7.17703C9.73391 7.19851 9.75592 7.25568 9.69346 7.31232C9.63119 7.36905 9.57634 7.34167 9.55567 7.33129L4.1025 4.60412C4.04863 4.57719 4.02036 4.49648 4.0455 4.44119Z" fill="#1E8FFE"></path><path d="M35.4044 8.30614C35.6817 8.55775 36.0315 8.6883 36.3867 8.6883C36.6095 8.6883 36.8345 8.63685 37.0447 8.53171L42.4978 5.80455C43.1944 5.45621 43.4988 4.59544 43.1764 3.8858C42.3439 2.0543 40.9566 0.795181 39.0533 0.14352C38.3158 -0.108894 37.4885 0.277288 37.209 1.00438L35.0216 6.69547C34.8029 7.26427 34.9532 7.89652 35.4044 8.30614ZM36.2744 7.17703L38.4617 1.48585C38.4793 1.44013 38.5338 1.40783 38.5843 1.40783C38.5961 1.40783 38.6077 1.40962 38.6184 1.41329C40.1801 1.948 41.2714 2.93842 41.9545 4.44101C41.9796 4.4963 41.9513 4.5771 41.8974 4.60403L36.4443 7.3312C36.4238 7.34149 36.369 7.36896 36.3065 7.31223C36.2441 7.25568 36.2661 7.19851 36.2744 7.17703Z" fill="#1E8FFE"></path><path d="M10.5955 37.6939C10.1442 37.2842 9.50037 37.1956 8.95528 37.4683L3.5022 40.1955C2.80544 40.5439 2.50104 41.4046 2.8236 42.1142C3.65619 43.9457 5.04344 45.2048 6.94679 45.8565C7.09997 45.9089 7.25701 45.9338 7.41234 45.9338C8.00432 45.9338 8.56972 45.5717 8.79109 44.9956L10.9784 39.3045C11.197 38.7357 11.0468 38.1035 10.5955 37.6939ZM9.72567 38.8231L7.53823 44.5142C7.51658 44.5705 7.43891 44.6064 7.38156 44.5868C5.81983 44.0521 4.72857 43.0618 4.0455 41.5589C4.02036 41.5036 4.04863 41.4229 4.10259 41.396L9.55567 38.6688C9.56658 38.6633 9.58716 38.6531 9.61329 38.6531C9.63647 38.6531 9.66411 38.6611 9.69346 38.6878C9.75583 38.7443 9.73391 38.8015 9.72567 38.8231Z" fill="#1E8FFE"></path><path d="M42.4978 40.1954L41.5624 39.7276C41.231 39.5618 40.8278 39.6962 40.6621 40.0276C40.4963 40.3591 40.6306 40.7622 40.9622 40.928L41.8976 41.3959C41.9515 41.4228 41.9797 41.5035 41.9546 41.5588C41.2716 43.0616 40.1804 44.052 38.6187 44.5866C38.5614 44.6063 38.4835 44.5703 38.4619 44.5141L36.2746 38.823C36.2662 38.8015 36.2443 38.7443 36.3067 38.6877C36.369 38.6311 36.4239 38.6585 36.4445 38.6688L38.3763 39.6349C38.7079 39.8008 39.1109 39.6663 39.2766 39.3348C39.4424 39.0033 39.3081 38.6002 38.9765 38.4345L37.0447 37.4684C36.4997 37.1957 35.8558 37.2843 35.4046 37.6939C34.9533 38.1035 34.8029 38.7357 35.0216 39.3045L37.209 44.9956C37.4304 45.5717 37.9957 45.9338 38.5878 45.9338C38.743 45.9338 38.9001 45.9089 39.0533 45.8565C40.9566 45.2048 42.3439 43.9457 43.1763 42.1142C43.4988 41.4047 43.1945 40.5439 42.4978 40.1954Z" fill="#1E8FFE"></path><path d="M5.2538 23.0114C5.26374 22.5405 5.00873 22.116 4.58827 21.9037L2.06646 20.6301C1.77431 20.4825 1.42938 20.4593 1.12006 20.5663C0.810111 20.6735 0.563244 20.8953 0.425181 21.1909C-0.142013 22.4049 -0.141834 23.5808 0.425629 24.6861C0.640642 25.1048 1.06476 25.3477 1.50669 25.3477C1.67428 25.3477 1.84446 25.3127 2.00669 25.2391L4.54201 24.0901C4.97124 23.8956 5.24396 23.4823 5.2538 23.0114ZM1.56709 23.9648C1.26573 23.3094 1.27101 22.6279 1.58319 21.8895L3.74138 22.9796L1.56709 23.9648Z" fill="#1E8FFE"></path><path d="M45.5746 21.191C45.4365 20.8954 45.1898 20.6736 44.8798 20.5663C44.5705 20.4592 44.2256 20.4825 43.9334 20.6301L41.4116 21.9037C40.9911 22.1161 40.7361 22.5405 40.7461 23.0114C40.756 23.4823 41.0286 23.8956 41.4577 24.09L43.9931 25.2391C44.1553 25.3127 44.3255 25.3476 44.4932 25.3476C44.935 25.3476 45.3592 25.1047 45.5742 24.6861C46.1417 23.5807 46.1419 22.4048 45.5746 21.191ZM44.4329 23.9648L42.2587 22.9795L44.4168 21.8895C44.729 22.6279 44.7342 23.3093 44.4329 23.9648Z" fill="#1E8FFE"></path><path d="M15.9683 4.86253C16.0521 5.15798 16.321 5.35081 16.6136 5.35081C16.6742 5.35081 16.7358 5.34258 16.797 5.32522C17.1535 5.2242 17.3607 4.85323 17.2596 4.49657L16.5379 1.94979C16.4369 1.59322 16.066 1.38591 15.7093 1.4871C15.3527 1.58812 15.1456 1.95909 15.2466 2.31575L15.9683 4.86253Z" fill="#1E8FFE"></path><path d="M7.20048 12.1007C7.35169 11.7623 7.20003 11.3654 6.86172 11.2141L4.86012 10.3194C4.52145 10.1682 4.1248 10.3197 3.97358 10.6581C3.82237 10.9965 3.97403 11.3934 4.31234 11.5447L6.31394 12.4394C6.40297 12.4792 6.49594 12.498 6.58747 12.498C6.844 12.498 7.08899 12.3501 7.20048 12.1007Z" fill="#1E8FFE"></path><path d="M4.08748 30.5779C3.77753 30.7811 3.691 31.1971 3.89421 31.5071C4.02305 31.7036 4.23735 31.8103 4.45603 31.8103C4.58228 31.8103 4.70988 31.7748 4.82333 31.7003L6.6569 30.4982C6.96684 30.295 7.05337 29.879 6.85017 29.5691C6.64696 29.2591 6.2309 29.1725 5.92104 29.3758L4.08748 30.5779Z" fill="#1E8FFE"></path><path d="M17.9784 40.3613C17.6523 40.1847 17.2452 40.3057 17.0687 40.6316L16.024 42.5592C15.8474 42.885 15.9684 43.2923 16.2943 43.4689C16.3959 43.524 16.5054 43.5501 16.6134 43.5501C16.8518 43.5501 17.0826 43.4229 17.2041 43.1987L18.2487 41.2711C18.4252 40.9453 18.3043 40.538 17.9784 40.3613Z" fill="#1E8FFE"></path><path d="M29.203 5.32522C29.2642 5.34258 29.3258 5.35081 29.3864 5.35081C29.679 5.35081 29.9479 5.1579 30.0317 4.86253L30.7534 2.31575C30.8545 1.95918 30.6473 1.58821 30.2907 1.4871C29.9341 1.38599 29.5631 1.59331 29.4621 1.94979L28.7403 4.49657C28.6392 4.85314 28.8464 5.22411 29.203 5.32522Z" fill="#1E8FFE"></path><path d="M42.0264 10.658C41.8752 10.3196 41.4781 10.1682 41.1399 10.3193L39.1384 11.2141C38.7999 11.3654 38.6483 11.7622 38.7996 12.1006C38.9111 12.35 39.156 12.498 39.4126 12.498C39.5041 12.498 39.5971 12.4792 39.6861 12.4393L41.6877 11.5446C42.026 11.3933 42.1777 10.9964 42.0264 10.658Z" fill="#1E8FFE"></path><path d="M39.1497 29.569C38.9465 29.8789 39.0331 30.2949 39.343 30.4981L41.1766 31.7002C41.2901 31.7747 41.4176 31.8102 41.5439 31.8102C41.7625 31.8102 41.9768 31.7035 42.1057 31.507C42.3089 31.197 42.2224 30.781 41.9124 30.5778L40.0789 29.3757C39.7688 29.1725 39.353 29.259 39.1497 29.569Z" fill="#1E8FFE"></path><path d="M28.9314 40.6317C28.7549 40.3058 28.3476 40.1846 28.0216 40.3613C27.6958 40.5379 27.5748 40.9452 27.7513 41.2711L28.796 43.1987C28.9174 43.4229 29.1482 43.5501 29.3866 43.5501C29.4946 43.5501 29.6041 43.524 29.7057 43.469C30.0316 43.2923 30.1525 42.885 29.976 42.5593L28.9314 40.6317Z" fill="#1E8FFE"></path></g><defs><clipPath id="clip0_2_38"><rect width="46" height="46" fill="white"></rect></clipPath></defs></svg>