<svg xmlns="http://www.w3.org/2000/svg" width="48" height="48" viewBox="0 0 48 48" fill="none"><path d="M35.5784 46.7027H12.4216C12.2496 46.7027 12.0846 46.6344 11.963 46.5127C11.8413 46.3911 11.773 46.2261 11.773 46.0541V40.7935C11.7747 39.1167 12.4415 37.5091 13.6272 36.3234C14.8129 35.1378 16.4205 34.4709 18.0973 34.4692H29.9027C31.5795 34.4709 33.1871 35.1378 34.3728 36.3234C35.5584 37.5091 36.2253 39.1167 36.227 40.7935V46.0541C36.227 46.2261 36.1587 46.3911 36.037 46.5127C35.9154 46.6344 35.7504 46.7027 35.5784 46.7027ZM13.0703 45.4054H34.9297V40.7935C34.928 39.4608 34.3978 38.1831 33.4554 37.2408C32.5131 36.2984 31.2354 35.7682 29.9027 35.7665H18.0973C16.7646 35.7682 15.4869 36.2984 14.5445 37.2408C13.6022 38.1831 13.072 39.4608 13.0703 40.7935V45.4054Z" fill="#1E8FFE"></path><path d="M24 32.3027C22.6966 32.3027 21.4224 31.9162 20.3386 31.192C19.2549 30.4679 18.4102 29.4386 17.9114 28.2344C17.4126 27.0302 17.2821 25.7051 17.5364 24.4267C17.7906 23.1483 18.4183 21.9741 19.34 21.0524C20.2616 20.1307 21.4359 19.5031 22.7143 19.2488C23.9927 18.9945 25.3178 19.125 26.522 19.6238C27.7262 20.1226 28.7555 20.9673 29.4796 22.0511C30.2038 23.1348 30.5903 24.409 30.5903 25.7124C30.5886 27.4598 29.8937 29.135 28.6581 30.3706C27.4226 31.6061 25.7473 32.301 24 32.3027ZM24 20.4195C22.9532 20.4195 21.9298 20.7299 21.0594 21.3115C20.189 21.8931 19.5105 22.7197 19.1099 23.6869C18.7093 24.6541 18.6045 25.7183 18.8087 26.745C19.013 27.7718 19.5171 28.7149 20.2573 29.4551C20.9975 30.1954 21.9407 30.6995 22.9674 30.9037C23.9941 31.1079 25.0584 31.0031 26.0255 30.6025C26.9927 30.2019 27.8194 29.5235 28.4009 28.6531C28.9825 27.7826 29.293 26.7593 29.293 25.7124C29.2913 24.3092 28.7331 22.9639 27.7408 21.9716C26.7485 20.9794 25.4033 20.4212 24 20.4195Z" fill="#1E8FFE"></path><path d="M30.2076 46.7027H17.7924C17.6204 46.7027 17.4554 46.6344 17.3338 46.5127C17.2121 46.3911 17.1438 46.2261 17.1438 46.0541V42.4735C17.1438 42.3015 17.2121 42.1365 17.3338 42.0149C17.4554 41.8932 17.6204 41.8249 17.7924 41.8249C17.9645 41.8249 18.1295 41.8932 18.2511 42.0149C18.3727 42.1365 18.4411 42.3015 18.4411 42.4735V45.4054H29.5589V42.4735C29.5589 42.3015 29.6273 42.1365 29.7489 42.0149C29.8705 41.8932 30.0355 41.8249 30.2076 41.8249C30.3796 41.8249 30.5446 41.8932 30.6662 42.0149C30.7879 42.1365 30.8562 42.3015 30.8562 42.4735V46.0541C30.8562 46.2261 30.7879 46.3911 30.6662 46.5127C30.5446 46.6344 30.3796 46.7027 30.2076 46.7027Z" fill="#1E8FFE"></path><path d="M27.7362 14.0886C27.6306 14.0873 27.5266 14.063 27.4313 14.0173L24 12.2076L20.5686 14.0173C20.4607 14.0742 20.339 14.0995 20.2174 14.0903C20.0958 14.0811 19.9792 14.0378 19.8811 13.9654C19.7816 13.8925 19.705 13.7928 19.6602 13.6779C19.6154 13.563 19.6043 13.4377 19.6281 13.3168L20.2767 9.49621L17.5135 6.79783C17.428 6.71339 17.3676 6.60684 17.339 6.49007C17.3105 6.37329 17.315 6.25089 17.352 6.13653C17.389 6.02216 17.4571 5.92032 17.5486 5.84238C17.6401 5.76444 17.7515 5.71346 17.8703 5.69513L21.7103 5.13729L23.4162 1.66054C23.4693 1.55087 23.5523 1.45838 23.6555 1.39367C23.7587 1.32895 23.8781 1.29463 24 1.29463C24.1218 1.29463 24.2412 1.32895 24.3445 1.39367C24.4477 1.45838 24.5307 1.55087 24.5838 1.66054L26.2962 5.13729L30.1362 5.69513C30.255 5.71346 30.3664 5.76444 30.4579 5.84238C30.5494 5.92032 30.6175 6.02216 30.6545 6.13653C30.6915 6.25089 30.6959 6.37329 30.6674 6.49007C30.6389 6.60684 30.5785 6.71339 30.493 6.79783L27.7167 9.50919L28.3654 13.3297C28.3892 13.4507 28.3781 13.576 28.3333 13.6909C28.2885 13.8058 28.2119 13.9055 28.1124 13.9784C28.0014 14.0531 27.87 14.0916 27.7362 14.0886ZM24 10.8454C24.1045 10.8451 24.2073 10.8719 24.2984 10.9232L26.893 12.2724L26.4 9.41189C26.3819 9.30762 26.3895 9.2005 26.4223 9.09987C26.4551 8.99925 26.512 8.90817 26.5881 8.83459L28.6703 6.81081L25.7967 6.38919C25.6892 6.37428 25.5871 6.33262 25.4999 6.26802C25.4126 6.20343 25.3429 6.11796 25.2973 6.01946L24 3.42486L22.7027 6.01946C22.6552 6.11349 22.5854 6.19453 22.4995 6.25556C22.4136 6.31659 22.3142 6.35577 22.2097 6.36973L19.3362 6.79135L21.4054 8.81513C21.4815 8.88871 21.5384 8.97979 21.5712 9.08041C21.604 9.18104 21.6116 9.28816 21.5935 9.39243L21.1005 12.253L23.6951 10.9038C23.7881 10.8513 23.8933 10.8245 24 10.8259V10.8454Z" fill="#1E8FFE"></path><path d="M42.6551 22.7027C42.5495 22.7014 42.4455 22.677 42.3503 22.6313L38.9189 20.8411L35.4876 22.6443C35.3797 22.7012 35.2579 22.7265 35.1363 22.7173C35.0147 22.7081 34.8981 22.6648 34.8 22.5924C34.7005 22.5195 34.6239 22.4198 34.5791 22.3049C34.5343 22.19 34.5232 22.0648 34.547 21.9438L35.1957 18.1232L32.4324 15.4314C32.3449 15.3467 32.2829 15.2392 32.2536 15.121C32.2243 15.0028 32.2288 14.8787 32.2667 14.763C32.3046 14.6473 32.3743 14.5446 32.4679 14.4666C32.5614 14.3886 32.675 14.3386 32.7957 14.3222L36.6357 13.7643L38.3481 10.2876C38.4012 10.1779 38.4842 10.0854 38.5874 10.0207C38.6907 9.95598 38.81 9.92166 38.9319 9.92166C39.0537 9.92166 39.1731 9.95598 39.2764 10.0207C39.3796 10.0854 39.4626 10.1779 39.5157 10.2876L41.2281 13.7643L45.0681 14.3222C45.1866 14.3425 45.2972 14.3954 45.3874 14.475C45.4776 14.5546 45.5439 14.6577 45.5789 14.7727C45.6139 14.8878 45.6162 15.0103 45.5855 15.1266C45.5549 15.2429 45.4925 15.3484 45.4054 15.4314L42.6357 18.1622L43.2843 21.9827C43.3075 22.1043 43.2954 22.23 43.2494 22.3449C43.2034 22.4599 43.1255 22.5593 43.0249 22.6313C42.9114 22.6912 42.7827 22.716 42.6551 22.7027ZM38.9189 19.4595C39.0229 19.4568 39.1258 19.4814 39.2173 19.5308L41.8119 20.88L41.3189 18.0195C41.3008 17.9152 41.3085 17.8081 41.3413 17.7074C41.374 17.6068 41.431 17.5157 41.507 17.4422L43.5892 15.4184L40.7092 14.9968C40.6059 14.9818 40.5078 14.9422 40.4231 14.8812C40.3384 14.8202 40.2696 14.7397 40.2227 14.6465L38.9254 12.0519L37.6281 14.6465C37.5806 14.7405 37.5108 14.8216 37.4249 14.8826C37.339 14.9436 37.2396 14.9828 37.1351 14.9968L34.2616 15.4184L36.3243 17.4422C36.4004 17.5157 36.4573 17.6068 36.4901 17.7074C36.5229 17.8081 36.5306 17.9152 36.5124 18.0195L36.0195 20.88L38.6141 19.5308C38.7083 19.4825 38.813 19.458 38.9189 19.4595Z" fill="#1E8FFE"></path><path d="M12.8173 22.7027C12.7117 22.7014 12.6077 22.677 12.5124 22.6314L9.08108 20.8411L5.64973 22.6443C5.54261 22.6999 5.42212 22.7245 5.3018 22.7153C5.18148 22.7061 5.06611 22.6636 4.96865 22.5924C4.86801 22.5203 4.79011 22.421 4.74413 22.306C4.69815 22.1911 4.68603 22.0654 4.70919 21.9438L5.35784 18.1232L2.59459 15.4314C2.50715 15.3472 2.44509 15.2401 2.41546 15.1224C2.38583 15.0047 2.38983 14.881 2.427 14.7655C2.46416 14.6499 2.53301 14.5471 2.6257 14.4687C2.7184 14.3904 2.83122 14.3396 2.95135 14.3222L6.79135 13.7643L8.50378 10.2876C8.55689 10.1779 8.63983 10.0854 8.74307 10.0207C8.84632 9.95598 8.96571 9.92166 9.08756 9.92166C9.20942 9.92166 9.32881 9.95598 9.43205 10.0207C9.5353 10.0854 9.61823 10.1779 9.67135 10.2876L11.3838 13.7643L15.2238 14.3222C15.3428 14.3416 15.4541 14.3938 15.5452 14.473C15.6362 14.5521 15.7033 14.6551 15.739 14.7703C15.7747 14.8856 15.7776 15.0085 15.7473 15.1252C15.717 15.242 15.6548 15.348 15.5676 15.4314L12.7978 18.1622L13.4465 21.9827C13.4627 22.0766 13.458 22.173 13.4328 22.2649C13.4075 22.3568 13.3623 22.442 13.3004 22.5145C13.2384 22.5869 13.1613 22.6449 13.0744 22.6841C12.9876 22.7234 12.8931 22.743 12.7978 22.7416L12.8173 22.7027ZM9.08108 19.4595C9.187 19.458 9.29167 19.4825 9.38594 19.5308L11.9805 20.88L11.4876 18.0195C11.4694 17.9152 11.4771 17.8081 11.5099 17.7074C11.5427 17.6068 11.5996 17.5157 11.6757 17.4422L13.7578 15.4184L10.8843 14.9968C10.7799 14.9828 10.6804 14.9436 10.5945 14.8826C10.5086 14.8216 10.4389 14.7405 10.3913 14.6465L9.09405 12.0519L7.79675 14.6465C7.74982 14.7397 7.68109 14.8202 7.5964 14.8812C7.51171 14.9422 7.41355 14.9818 7.31027 14.9968L4.43027 15.4184L6.48648 17.4422C6.56255 17.5157 6.61947 17.6068 6.65226 17.7074C6.68504 17.8081 6.69271 17.9152 6.67459 18.0195L6.18162 20.88L8.77621 19.5308C8.86967 19.4803 8.97492 19.4557 9.08108 19.4595Z" fill="#1E8FFE"></path></svg>